<svg width="1124" height="1124" xmlns="http://www.w3.org/2000/svg" viewBox="0 0 1124 1124">
  <path d="M 898 1067 L 898 1068 Z M 584 1064 L 585 1064 Z M 368 1064 L 368 1065 Z M 264 1059 L 263 1060 L 264 1059 L 265 1059 Z M 890 1058 L 891 1058 Z M 536 1057 L 538 1059 L 538 1058 L 537 1058 Z M 282 1054 L 283 1055 Z M 878 1053 L 878 1054 Z M 868 1051 L 868 1052 Z M 508 1051 L 507 1052 Z M 780 1050 L 781 1050 Z M 614 1050 L 615 1050 Z M 398 1050 L 399 1051 Z M 908 1048 L 909 1048 Z M 914 1042 L 915 1042 Z M 803 1042 L 804 1042 Z M 608 1042 L 609 1042 Z M 731 1037 L 732 1037 Z M 648 1036 L 649 1037 Z M 831 1034 L 831 1035 L 832 1035 Z M 993 1033 L 994 1034 Z M 558 1032 L 559 1032 Z M 853 1031 L 854 1032 Z M 833 1030 L 833 1031 Z M 767 1030 L 766 1031 Z M 749 1030 L 749 1031 Z M 657 1030 L 657 1031 L 658 1031 Z M 79 1030 L 80 1030 Z M 436 1029 L 437 1029 Z M 235 1029 L 235 1030 Z M 678 1028 L 678 1029 Z M 1039 1026 L 1039 1027 Z M 1027 1025 L 1028 1025 Z M 537 1025 L 538 1025 Z M 470 1023 L 471 1023 Z M 354 1023 L 354 1024 Z M 654 1022 L 655 1022 Z M 763 1018 L 764 1019 Z M 164 1018 L 165 1018 Z M 115 1017 L 116 1017 Z M 94 1017 L 95 1017 Z M 603 1016 L 603 1017 Z M 294 1014 L 292 1016 Z M 768 1013 L 768 1014 L 769 1015 L 768 1014 Z M 217 1013 L 217 1014 Z M 479 1012 L 479 1013 Z M 319 1012 L 320 1012 Z M 263 1010 L 263 1011 Z M 994 1009 L 996 1009 Z M 714 1009 L 715 1009 Z M 703 1009 L 702 1010 Z M 250 1009 L 251 1009 L 252 1010 L 251 1009 Z M 85 1009 L 87 1009 Z M 1061 1008 L 1062 1008 Z M 1022 1008 L 1023 1009 Z M 717 1008 L 718 1008 Z M 287 1007 L 288 1008 Z M 770 1006 L 771 1006 Z M 208 1005 L 208 1006 Z M 684 1004 L 685 1005 Z M 505 1002 L 506 1003 L 506 1002 Z M 363 1002 L 362 1003 L 363 1002 L 364 1002 Z M 931 1001 L 932 1001 Z M 764 1001 L 765 1001 Z M 378 1001 L 379 1001 Z M 318 1001 L 319 1001 Z M 998 999 L 997 1000 L 998 999 L 999 999 Z M 521 999 L 521 1000 L 520 1001 L 521 1000 Z M 216 999 L 216 1001 Z M 468 998 L 469 998 Z M 903 997 L 902 998 Z M 653 997 L 654 997 Z M 67 997 L 67 998 L 68 999 L 67 998 Z M 234 996 L 233 997 Z M 630 995 L 629 996 Z M 1014 994 L 1015 994 Z M 916 994 L 917 994 Z M 804 994 L 805 994 Z M 680 994 L 681 995 Z M 1020 993 L 1020 994 Z M 586 991 L 585 992 Z M 421 991 L 422 991 Z M 642 990 L 642 991 L 643 991 Z M 195 990 L 195 991 Z M 794 988 L 795 988 Z M 471 985 L 470 986 Z M 799 984 L 799 985 Z M 732 983 L 732 984 Z M 284 983 L 283 984 Z M 911 982 L 912 983 Z M 690 982 L 691 982 Z M 653 981 L 654 981 Z M 139 981 L 138 982 Z M 644 980 L 645 980 Z M 313 978 L 314 979 Z M 563 976 L 564 976 Z M 248 975 L 247 976 L 246 976 L 247 976 Z M 776 972 L 777 972 Z M 758 971 L 757 972 L 758 972 L 759 971 Z M 754 970 L 755 971 Z M 454 970 L 455 970 Z M 435 969 L 436 969 Z M 844 968 L 845 968 Z M 643 968 L 644 969 Z M 414 968 L 414 969 Z M 398 968 L 398 969 Z M 641 967 L 641 968 Z M 495 967 L 496 967 Z M 511 966 L 511 967 Z M 632 965 L 633 966 L 633 967 L 633 966 Z M 332 965 L 332 966 Z M 432 963 L 433 964 Z M 97 963 L 97 964 Z M 682 962 L 683 963 Z M 442 962 L 442 963 Z M 514 961 L 515 962 Z M 990 960 L 991 961 Z M 805 960 L 806 960 Z M 912 959 L 913 959 Z M 825 958 L 826 958 Z M 803 958 L 802 959 Z M 661 958 L 662 958 Z M 415 957 L 416 958 Z M 88 954 L 89 954 Z M 1024 951 L 1024 952 L 1025 951 Z M 713 951 L 714 952 Z M 407 946 L 407 947 Z M 1053 943 L 1054 943 Z M 592 943 L 593 944 L 593 943 Z M 519 943 L 520 944 Z M 307 943 L 308 944 Z M 77 942 L 78 942 Z M 331 940 L 332 940 Z M 290 940 L 291 941 Z M 525 939 L 526 940 Z M 122 939 L 122 940 Z M 791 936 L 792 937 Z M 543 936 L 543 937 Z M 526 936 L 525 937 L 524 937 L 525 937 Z M 184 936 L 183 937 Z M 968 935 L 969 936 L 969 935 Z M 909 934 L 910 935 Z M 262 933 L 263 933 Z M 334 931 L 335 931 Z M 197 931 L 198 931 Z M 850 930 L 850 931 Z M 960 929 L 961 929 Z M 891 929 L 892 929 Z M 546 928 L 546 929 Z M 506 927 L 507 927 Z M 992 926 L 993 926 Z M 787 925 L 788 925 Z M 538 924 L 538 925 Z M 392 921 L 393 921 Z M 316 919 L 315 920 Z M 233 919 L 233 920 Z M 554 918 L 555 919 L 555 920 L 555 919 Z M 690 917 L 691 917 Z M 355 917 L 356 917 Z M 416 915 L 417 915 Z M 367 915 L 368 915 Z M 485 914 L 486 914 Z M 562 912 L 563 913 Z M 361 912 L 361 913 Z M 549 911 L 549 912 Z M 850 910 L 850 911 Z M 706 908 L 707 909 Z M 364 908 L 364 909 Z M 779 906 L 780 906 Z M 101 905 L 101 906 Z M 591 904 L 591 906 Z M 467 904 L 468 905 Z M 346 902 L 347 902 Z M 392 901 L 393 902 Z M 207 900 L 207 901 Z M 1014 898 L 1013 899 Z M 995 898 L 994 899 Z M 450 898 L 451 898 Z M 532 896 L 532 897 Z M 785 893 L 784 894 Z M 634 892 L 635 892 Z M 254 891 L 253 892 L 253 893 L 254 892 Z M 669 890 L 668 891 L 668 892 L 669 891 Z M 724 888 L 724 889 Z M 612 888 L 612 889 Z M 1002 887 L 1003 888 Z M 581 886 L 582 886 Z M 917 885 L 917 886 Z M 776 883 L 775 884 Z M 367 883 L 368 884 Z M 319 883 L 319 884 L 320 883 Z M 66 883 L 66 884 Z M 1067 882 L 1068 882 Z M 507 882 L 508 882 Z M 297 882 L 296 883 Z M 869 880 L 870 880 Z M 603 880 L 603 881 L 604 882 L 603 881 Z M 187 877 L 188 877 Z M 1038 873 L 1039 874 Z M 534 873 L 535 873 Z M 528 873 L 527 874 Z M 809 872 L 810 872 Z M 378 872 L 377 873 Z M 157 872 L 156 873 Z M 93 872 L 93 873 Z M 710 871 L 709 872 Z M 455 871 L 455 872 Z M 78 871 L 79 872 L 79 871 Z M 509 869 L 511 869 Z M 929 868 L 929 869 Z M 322 868 L 323 869 Z M 750 865 L 751 866 Z M 632 865 L 633 865 Z M 1006 863 L 1007 863 Z M 477 863 L 477 864 Z M 514 861 L 513 862 Z M 130 861 L 129 862 Z M 77 861 L 78 861 Z M 454 859 L 455 860 Z M 226 859 L 226 860 Z M 505 857 L 506 858 Z M 118 857 L 119 857 Z M 573 853 L 574 854 Z M 895 852 L 896 852 Z M 1028 851 L 1029 852 Z M 125 851 L 125 852 Z M 369 849 L 369 850 Z M 1052 848 L 1052 849 Z M 249 848 L 250 848 Z M 136 845 L 137 845 Z M 378 844 L 379 844 Z M 844 843 L 845 843 Z M 716 843 L 716 844 Z M 692 842 L 693 842 Z M 874 841 L 875 841 Z M 853 840 L 854 840 Z M 615 840 L 616 841 Z M 295 840 L 296 840 Z M 992 839 L 991 840 Z M 871 838 L 871 840 L 872 840 L 871 839 Z M 538 838 L 540 838 Z M 744 837 L 743 838 Z M 231 830 L 232 830 Z M 480 829 L 480 830 Z M 156 829 L 157 829 Z M 513 827 L 514 827 Z M 372 827 L 373 828 Z M 877 824 L 878 824 Z M 476 824 L 477 824 Z M 910 823 L 911 823 Z M 541 818 L 542 818 Z M 893 817 L 894 817 Z M 426 816 L 427 816 Z M 798 815 L 799 816 Z M 464 814 L 464 815 Z M 330 814 L 331 814 Z M 616 813 L 615 814 Z M 119 813 L 120 813 Z M 666 809 L 667 809 Z M 844 807 L 843 808 Z M 487 805 L 488 806 Z M 92 805 L 93 805 Z M 814 804 L 815 804 Z M 333 802 L 333 803 Z M 774 801 L 775 802 Z M 742 800 L 741 801 Z M 306 800 L 307 800 Z M 1009 799 L 1010 800 Z M 994 799 L 995 800 Z M 669 799 L 670 799 Z M 86 799 L 87 799 Z M 587 797 L 588 798 Z M 360 797 L 361 798 Z M 116 797 L 117 797 Z M 604 796 L 603 797 Z M 932 795 L 931 796 Z M 757 795 L 758 796 Z M 74 795 L 74 796 Z M 592 793 L 591 794 Z M 335 793 L 336 793 Z M 203 793 L 206 793 Z M 395 791 L 396 792 Z M 332 789 L 333 789 Z M 397 788 L 397 789 Z M 753 787 L 752 788 Z M 363 786 L 363 787 Z M 757 785 L 758 785 Z M 949 784 L 950 784 Z M 641 781 L 663 781 Z M 363 781 L 364 781 Z M 634 780 L 639 780 Z M 256 780 L 257 780 Z M 674 779 L 673 780 L 666 780 L 673 780 L 674 779 L 678 779 Z M 768 778 L 769 779 Z M 680 778 L 682 778 Z M 593 778 L 593 779 Z M 310 778 L 311 778 Z M 1038 777 L 1038 778 Z M 870 777 L 870 778 Z M 620 777 L 622 777 L 623 778 L 626 778 L 627 779 L 632 779 L 628 779 L 627 778 L 624 778 L 623 777 Z M 614 777 L 615 777 Z M 446 777 L 446 778 Z M 617 776 L 618 776 Z M 370 776 L 370 777 Z M 694 774 L 693 775 L 691 775 L 690 776 L 688 776 L 687 777 L 685 777 L 687 777 L 688 776 L 690 776 L 691 775 L 693 775 L 694 774 L 695 774 Z M 611 774 L 612 774 L 613 775 L 614 775 L 613 775 L 612 774 Z M 608 773 L 606 775 L 608 773 L 609 773 Z M 570 772 L 571 773 Z M 702 771 L 701 772 L 700 772 L 699 773 L 697 773 L 699 773 L 700 772 L 701 772 L 702 771 L 703 771 Z M 450 769 L 450 770 Z M 596 767 L 597 768 L 596 769 L 597 768 L 598 768 L 599 769 L 598 768 L 597 768 Z M 1031 764 L 1031 765 Z M 370 764 L 370 765 Z M 589 763 L 590 764 L 591 764 L 592 765 L 591 764 L 590 764 Z M 580 762 L 580 763 Z M 100 762 L 100 763 Z M 586 761 L 587 762 Z M 583 759 L 584 760 Z M 776 758 L 776 759 L 777 758 Z M 512 758 L 513 758 Z M 153 758 L 152 759 Z M 874 757 L 875 758 Z M 498 756 L 499 756 Z M 728 755 L 727 756 L 728 755 L 729 756 Z M 578 755 L 578 756 L 579 756 L 581 758 Z M 183 753 L 184 753 Z M 811 752 L 811 753 Z M 92 751 L 93 752 Z M 572 750 L 573 751 Z M 255 749 L 255 750 Z M 446 748 L 447 748 Z M 569 747 L 570 748 Z M 441 747 L 442 748 L 441 749 L 441 750 L 441 749 L 442 748 Z M 738 745 L 730 753 Z M 565 743 L 567 745 Z M 431 742 L 431 743 L 432 742 L 434 742 Z M 450 739 L 450 740 Z M 518 737 L 519 737 Z M 372 737 L 373 738 Z M 844 733 L 845 734 L 845 733 Z M 557 733 L 557 734 L 562 739 L 559 736 L 559 735 Z M 419 733 L 419 734 Z M 515 731 L 516 731 Z M 857 730 L 857 731 Z M 402 730 L 401 731 Z M 1007 729 L 1007 730 Z M 994 728 L 993 729 Z M 434 728 L 435 728 Z M 272 726 L 271 727 Z M 889 725 L 888 726 Z M 758 725 L 759 726 Z M 999 724 L 1000 725 Z M 422 723 L 421 724 L 422 724 Z M 519 722 L 520 723 L 521 723 L 520 723 Z M 754 720 L 754 721 L 753 722 L 754 721 Z M 487 720 L 486 721 Z M 546 719 L 547 720 Z M 308 718 L 309 719 L 310 718 L 309 719 Z M 906 717 L 905 718 Z M 884 717 L 886 717 Z M 756 715 L 756 716 L 755 717 L 755 718 L 755 717 L 756 716 Z M 408 714 L 409 714 Z M 797 713 L 796 714 Z M 218 713 L 217 714 Z M 829 712 L 830 713 Z M 757 712 L 757 713 Z M 540 711 L 541 712 Z M 758 709 L 758 710 Z M 415 709 L 415 710 L 416 710 Z M 249 708 L 250 709 Z M 815 706 L 815 707 Z M 403 706 L 403 707 Z M 759 705 L 759 707 Z M 535 705 L 536 706 Z M 376 703 L 377 704 Z M 136 703 L 136 704 Z M 532 701 L 533 702 Z M 760 700 L 760 702 Z M 363 699 L 364 699 Z M 119 699 L 119 700 Z M 528 696 L 527 697 L 528 696 L 529 697 Z M 501 696 L 502 696 Z M 323 696 L 324 696 Z M 922 695 L 923 695 Z M 511 695 L 511 696 Z M 379 693 L 380 694 Z M 173 693 L 173 694 Z M 926 688 L 925 689 Z M 407 688 L 408 688 Z M 521 687 L 522 688 Z M 830 684 L 831 684 Z M 777 683 L 778 684 Z M 517 682 L 518 683 Z M 419 681 L 420 682 Z M 962 680 L 963 680 Z M 492 678 L 493 678 Z M 513 677 L 514 678 Z M 792 676 L 791 677 Z M 403 676 L 403 677 Z M 385 676 L 386 676 Z M 469 672 L 468 673 L 469 674 Z M 270 671 L 271 671 Z M 298 670 L 297 671 Z M 288 669 L 289 669 Z M 506 668 L 508 670 Z M 382 668 L 383 668 Z M 1027 666 L 1028 666 Z M 389 665 L 390 665 Z M 170 665 L 170 666 Z M 502 663 L 503 664 Z M 498 658 L 501 661 Z M 367 657 L 368 657 Z M 942 656 L 943 656 Z M 362 656 L 363 657 Z M 1012 653 L 1013 653 Z M 925 653 L 926 654 Z M 178 653 L 178 654 Z M 494 652 L 495 653 L 495 654 L 496 655 L 495 656 L 496 655 L 497 656 L 495 654 L 495 653 Z M 565 650 L 565 651 Z M 896 649 L 897 649 Z M 561 649 L 563 651 L 563 650 L 562 650 Z M 262 649 L 261 650 Z M 809 648 L 808 649 Z M 429 648 L 429 649 Z M 352 648 L 353 648 Z M 891 646 L 892 647 Z M 883 646 L 884 646 Z M 491 645 L 491 646 Z M 199 645 L 200 645 L 201 646 L 200 645 Z M 468 644 L 469 644 Z M 90 644 L 91 644 Z M 413 643 L 414 643 Z M 462 642 L 463 643 Z M 422 642 L 422 643 Z M 490 641 L 490 643 Z M 801 639 L 802 639 Z M 553 639 L 554 640 Z M 370 639 L 369 640 Z M 108 636 L 107 637 Z M 255 635 L 253 637 Z M 464 634 L 463 635 Z M 92 634 L 94 634 Z M 214 633 L 215 633 Z M 361 631 L 360 632 Z M 127 631 L 128 631 Z M 490 630 L 490 632 L 489 633 L 489 639 L 489 633 L 490 632 Z M 457 630 L 458 630 Z M 446 630 L 445 631 Z M 415 630 L 414 631 Z M 332 630 L 332 631 Z M 777 629 L 778 629 Z M 132 628 L 133 628 L 134 629 L 133 628 Z M 860 626 L 861 627 Z M 542 626 L 543 627 Z M 338 626 L 339 626 Z M 769 625 L 770 625 Z M 491 625 L 492 626 Z M 242 625 L 241 626 L 242 625 L 243 625 Z M 219 625 L 220 625 Z M 121 622 L 122 623 Z M 281 621 L 281 622 Z M 170 621 L 171 621 Z M 538 620 L 538 621 Z M 497 619 L 496 620 Z M 762 618 L 762 691 L 761 692 L 761 698 L 761 693 L 762 692 Z M 345 618 L 346 619 L 347 619 L 346 618 Z M 851 617 L 852 617 Z M 761 614 L 761 616 Z M 532 614 L 534 616 Z M 185 614 L 187 614 Z M 504 613 L 503 614 Z M 138 613 L 139 614 Z M 507 611 L 506 612 L 507 611 L 508 611 Z M 477 611 L 477 612 Z M 885 610 L 886 610 Z M 525 609 L 525 610 L 526 610 L 527 611 L 528 611 L 529 612 L 528 611 L 527 611 Z M 520 609 L 523 609 Z M 517 608 L 518 608 Z M 515 608 L 514 609 L 512 609 L 515 609 Z M 393 608 L 392 609 Z M 758 605 L 758 606 L 759 606 Z M 498 604 L 497 605 Z M 214 604 L 213 605 Z M 390 603 L 391 603 Z M 824 602 L 823 603 Z M 756 602 L 757 603 Z M 483 601 L 482 602 Z M 403 601 L 403 602 Z M 1037 599 L 1038 599 Z M 124 597 L 125 598 Z M 855 596 L 856 596 Z M 751 596 L 752 597 Z M 809 594 L 810 594 Z M 794 594 L 795 594 Z M 308 593 L 309 593 Z M 742 592 L 743 592 Z M 541 592 L 541 593 L 542 593 Z M 336 592 L 337 592 Z M 1017 591 L 1017 592 L 1016 593 L 1017 592 Z M 731 591 L 730 592 L 728 592 L 727 593 L 726 593 L 725 594 L 724 594 L 723 595 L 722 595 L 723 595 L 724 594 L 725 594 L 726 593 L 727 593 L 728 592 L 731 592 L 732 591 L 740 591 Z M 1058 590 L 1058 591 Z M 714 590 L 714 591 L 715 592 L 715 594 L 716 595 L 716 598 L 717 599 L 717 600 L 719 598 L 718 599 L 717 599 L 716 598 L 716 595 L 715 594 L 715 592 L 714 591 Z M 348 589 L 347 590 Z M 304 589 L 303 590 Z M 298 589 L 297 590 L 300 590 L 301 589 L 300 590 L 299 590 Z M 932 584 L 933 584 Z M 897 584 L 898 584 Z M 710 584 L 711 585 Z M 433 583 L 432 584 Z M 259 583 L 260 583 Z M 883 581 L 884 582 L 884 581 Z M 412 581 L 413 582 Z M 292 581 L 293 581 Z M 284 581 L 283 582 Z M 675 580 L 674 581 Z M 378 578 L 377 579 Z M 235 578 L 234 579 Z M 718 577 L 719 577 Z M 478 577 L 477 578 Z M 939 576 L 940 576 Z M 701 576 L 702 577 Z M 682 576 L 681 577 L 680 577 L 679 578 L 678 578 L 679 578 L 680 577 L 681 577 L 682 576 L 683 576 Z M 693 575 L 697 575 Z M 685 575 L 691 575 Z M 669 575 L 669 578 L 670 579 L 670 586 L 670 579 L 669 578 Z M 404 575 L 404 576 L 405 576 Z M 337 575 L 338 575 Z M 1031 574 L 1031 575 Z M 528 574 L 529 575 Z M 383 574 L 382 575 L 383 574 L 384 574 Z M 543 573 L 544 573 Z M 718 572 L 717 573 Z M 1050 569 L 1049 570 Z M 707 569 L 783 569 L 784 570 L 785 570 L 786 569 L 793 569 Z M 686 569 L 705 569 Z M 565 569 L 565 648 Z M 329 569 L 544 569 Z M 666 568 L 667 569 L 667 570 L 668 571 L 668 573 L 668 571 L 667 570 L 667 569 Z M 325 568 L 327 568 Z M 800 567 L 799 568 L 795 568 L 796 569 L 797 568 L 799 568 L 800 569 L 801 569 L 800 569 L 799 568 L 800 567 L 802 567 Z M 804 566 L 805 566 Z M 622 566 L 621 567 Z M 318 566 L 319 566 L 320 567 L 322 567 L 320 567 L 319 566 Z M 880 565 L 879 566 L 878 566 L 879 566 Z M 807 565 L 808 565 Z M 313 564 L 314 565 Z M 1028 562 L 1029 562 Z M 308 562 L 309 562 Z M 816 561 L 815 562 L 814 562 L 813 563 L 812 563 L 811 564 L 810 564 L 811 564 L 812 563 L 813 563 L 814 562 L 816 562 Z M 546 561 L 546 565 Z M 196 561 L 195 562 Z M 553 559 L 553 560 Z M 821 558 L 820 559 L 821 558 L 822 559 L 822 558 Z M 682 558 L 682 561 L 683 562 L 683 567 L 683 562 L 682 561 Z M 649 556 L 652 556 L 653 557 L 654 557 L 655 558 L 656 558 L 657 559 L 656 558 L 655 558 L 654 557 L 653 557 L 652 556 Z M 299 556 L 300 557 Z M 244 556 L 245 556 Z M 1037 555 L 1038 555 Z M 645 555 L 646 555 Z M 641 555 L 642 555 Z M 633 555 L 634 556 L 633 557 L 632 557 L 631 558 L 630 558 L 629 559 L 630 558 L 631 558 L 632 557 L 633 557 L 634 556 L 637 556 L 634 556 Z M 294 552 L 295 553 Z M 253 552 L 254 552 Z M 546 551 L 546 553 Z M 93 551 L 94 551 Z M 679 550 L 679 551 L 680 552 L 680 553 L 680 552 L 679 551 Z M 242 550 L 243 551 Z M 204 548 L 204 549 Z M 243 546 L 243 547 Z M 546 544 L 546 546 Z M 630 543 L 629 544 Z M 839 541 L 838 542 Z M 673 541 L 675 543 L 674 544 L 674 545 L 674 544 L 675 543 Z M 284 541 L 285 542 Z M 629 539 L 628 540 Z M 334 535 L 544 535 Z M 142 535 L 143 536 Z M 791 534 L 793 534 Z M 674 534 L 673 535 L 789 535 L 675 535 Z M 330 534 L 332 534 Z M 280 534 L 280 535 L 279 536 L 280 535 L 281 536 L 280 535 Z M 844 533 L 844 534 Z M 327 533 L 328 533 Z M 797 532 L 796 533 L 795 533 L 796 533 Z M 451 531 L 451 532 Z M 565 530 L 565 567 Z M 802 529 L 802 530 L 803 529 Z M 493 529 L 494 529 Z M 949 528 L 950 529 Z M 266 527 L 266 528 Z M 807 526 L 806 527 Z M 276 526 L 276 527 L 277 528 L 277 529 L 278 530 L 277 529 L 277 528 L 276 527 Z M 146 526 L 147 527 Z M 119 525 L 118 526 Z M 848 524 L 848 525 L 847 526 L 847 527 L 847 526 L 848 525 Z M 275 523 L 275 524 Z M 810 522 L 810 523 L 811 522 Z M 59 522 L 60 522 Z M 345 518 L 346 518 Z M 223 517 L 224 517 Z M 850 516 L 850 519 L 849 520 L 849 522 L 849 520 L 850 519 Z M 273 516 L 273 518 L 274 519 L 274 520 L 274 519 L 273 518 Z M 815 514 L 815 515 L 814 516 L 814 517 L 812 519 L 813 519 L 813 518 L 814 517 L 814 516 L 815 515 Z M 565 514 L 565 528 Z M 308 513 L 308 515 L 309 516 L 309 517 L 310 518 L 310 519 L 311 520 L 310 519 L 310 518 L 309 517 L 309 516 L 308 515 Z M 426 512 L 426 513 Z M 816 511 L 816 512 Z M 851 510 L 851 514 Z M 307 510 L 307 511 Z M 648 508 L 649 508 Z M 817 505 L 817 509 Z M 679 505 L 711 505 Z M 478 505 L 544 505 Z M 780 504 L 779 505 L 746 505 L 779 505 Z M 714 504 L 713 505 Z M 640 504 L 642 504 Z M 447 504 L 446 505 L 412 505 L 418 505 L 419 506 L 420 505 L 446 505 L 447 504 L 448 504 Z M 306 504 L 306 508 Z M 897 503 L 898 503 Z M 742 503 L 743 504 L 744 504 L 743 504 Z M 647 503 L 648 503 Z M 717 502 L 716 503 Z M 924 499 L 925 499 Z M 652 499 L 651 500 Z M 565 499 L 565 512 Z M 787 497 L 787 498 Z M 737 497 L 737 498 L 738 499 L 737 498 Z M 387 497 L 386 498 L 386 499 L 386 498 Z M 636 496 L 636 499 Z M 670 495 L 670 496 Z M 336 495 L 336 497 Z M 546 494 L 546 504 Z M 566 492 L 566 495 Z M 469 492 L 469 493 Z M 818 491 L 818 493 L 817 494 L 818 493 Z M 78 491 L 79 491 Z M 617 490 L 618 491 L 618 494 L 619 495 L 619 572 L 619 570 L 620 569 L 619 568 L 619 495 L 618 494 L 618 491 Z M 943 489 L 943 490 Z M 736 489 L 736 494 Z M 636 489 L 636 493 Z M 336 488 L 336 489 Z M 988 487 L 988 488 Z M 568 487 L 568 488 Z M 548 487 L 547 488 L 547 492 L 547 488 L 548 487 L 549 488 Z M 227 487 L 227 488 Z M 788 486 L 788 494 Z M 736 486 L 736 487 Z M 189 486 L 188 487 Z M 306 485 L 306 487 Z M 614 484 L 615 485 L 615 486 L 616 487 L 615 486 L 615 485 Z M 1041 482 L 1041 483 Z M 634 482 L 634 484 L 635 485 L 635 487 L 635 485 L 634 484 Z M 549 482 L 549 483 L 548 484 L 548 485 L 548 484 L 549 483 Z M 314 480 L 313 481 Z M 306 480 L 306 481 Z M 788 479 L 788 483 Z M 633 479 L 633 480 Z M 577 477 L 576 478 L 575 478 L 574 479 L 575 478 L 576 478 Z M 587 475 L 586 476 L 584 476 L 583 477 L 581 477 L 580 478 L 579 478 L 577 480 L 576 480 L 572 484 L 572 485 L 571 486 L 571 487 L 570 488 L 570 489 L 569 490 L 569 492 L 568 493 L 568 658 L 567 659 L 564 656 L 564 655 L 565 654 L 564 655 L 559 650 L 559 649 L 554 644 L 554 643 L 549 638 L 549 637 L 545 633 L 545 632 L 540 627 L 540 626 L 536 622 L 536 621 L 530 615 L 529 615 L 527 613 L 526 613 L 525 612 L 524 612 L 523 611 L 513 611 L 512 612 L 510 612 L 509 613 L 508 613 L 507 614 L 506 614 L 504 616 L 503 616 L 495 624 L 495 625 L 494 626 L 494 627 L 493 628 L 493 630 L 492 631 L 492 642 L 493 643 L 493 646 L 494 647 L 494 648 L 495 649 L 495 650 L 497 652 L 497 653 L 500 656 L 500 657 L 503 660 L 503 661 L 507 665 L 507 666 L 510 669 L 510 670 L 513 673 L 513 674 L 517 678 L 517 679 L 521 683 L 521 684 L 520 685 L 521 684 L 525 688 L 525 689 L 524 690 L 524 691 L 527 694 L 524 691 L 524 690 L 525 689 L 529 693 L 529 694 L 532 697 L 532 698 L 536 702 L 536 703 L 539 706 L 539 707 L 543 711 L 543 712 L 546 715 L 546 716 L 550 720 L 550 721 L 549 722 L 549 723 L 552 726 L 553 725 L 557 729 L 557 730 L 556 731 L 555 730 L 556 731 L 557 730 L 561 734 L 561 735 L 564 738 L 564 739 L 578 753 L 579 753 L 582 756 L 583 756 L 586 759 L 587 759 L 589 761 L 590 761 L 591 762 L 592 762 L 594 764 L 595 764 L 596 765 L 597 765 L 598 766 L 599 766 L 600 767 L 601 767 L 602 768 L 603 768 L 604 769 L 603 770 L 602 770 L 603 771 L 604 771 L 603 770 L 604 769 L 606 769 L 607 770 L 608 770 L 609 771 L 611 771 L 612 772 L 614 772 L 615 773 L 616 773 L 617 774 L 620 774 L 621 775 L 624 775 L 625 776 L 629 776 L 630 777 L 635 777 L 636 778 L 647 778 L 648 779 L 658 779 L 659 778 L 670 778 L 671 777 L 677 777 L 678 776 L 681 776 L 682 775 L 686 775 L 687 774 L 689 774 L 690 773 L 692 773 L 693 772 L 695 772 L 696 771 L 698 771 L 699 770 L 700 770 L 701 769 L 702 769 L 703 768 L 704 768 L 705 767 L 706 767 L 707 766 L 708 766 L 709 765 L 710 765 L 711 764 L 712 764 L 713 763 L 714 763 L 715 764 L 713 766 L 712 766 L 713 766 L 715 764 L 716 764 L 717 763 L 716 764 L 715 764 L 714 763 L 716 761 L 717 761 L 719 759 L 720 759 L 723 756 L 724 756 L 725 757 L 723 759 L 725 757 L 724 756 L 739 741 L 739 740 L 742 737 L 742 736 L 745 733 L 746 734 L 746 735 L 745 736 L 746 735 L 746 734 L 747 733 L 746 734 L 745 733 L 745 732 L 746 731 L 746 730 L 748 728 L 748 727 L 749 726 L 749 725 L 750 724 L 750 723 L 751 722 L 751 721 L 752 720 L 752 718 L 753 717 L 753 716 L 754 715 L 754 713 L 755 712 L 755 710 L 756 709 L 756 707 L 757 706 L 757 703 L 758 702 L 758 697 L 759 696 L 759 615 L 758 614 L 758 611 L 757 610 L 757 608 L 756 607 L 756 606 L 755 605 L 755 604 L 754 603 L 754 602 L 748 596 L 747 596 L 746 595 L 744 595 L 743 594 L 738 594 L 737 593 L 736 594 L 729 594 L 728 595 L 727 595 L 726 596 L 725 596 L 724 597 L 723 597 L 717 603 L 717 604 L 715 606 L 714 605 L 714 596 L 713 595 L 713 593 L 712 592 L 712 590 L 710 588 L 710 587 L 708 585 L 708 584 L 705 581 L 704 581 L 702 579 L 701 579 L 700 578 L 698 578 L 697 577 L 686 577 L 685 578 L 683 578 L 682 579 L 681 579 L 680 580 L 679 580 L 678 581 L 677 581 L 672 586 L 672 587 L 671 588 L 671 589 L 670 590 L 670 591 L 669 592 L 668 591 L 668 582 L 667 581 L 667 576 L 666 575 L 666 573 L 665 572 L 665 570 L 664 569 L 664 568 L 661 565 L 661 564 L 662 563 L 664 565 L 661 562 L 662 563 L 661 564 L 660 564 L 657 561 L 656 561 L 655 560 L 654 560 L 653 559 L 651 559 L 650 558 L 636 558 L 635 559 L 633 559 L 632 560 L 631 560 L 630 561 L 629 561 L 624 566 L 624 567 L 622 569 L 622 571 L 621 572 L 621 573 L 620 574 L 620 576 L 619 577 L 619 582 L 618 583 L 617 582 L 617 571 L 616 570 L 616 493 L 615 492 L 615 490 L 614 489 L 614 488 L 613 487 L 613 486 L 612 485 L 612 484 L 609 481 L 608 481 L 605 478 L 604 478 L 603 477 L 602 477 L 601 476 L 599 476 L 598 475 Z M 818 474 L 818 475 Z M 601 474 L 602 474 L 603 475 L 602 474 Z M 553 474 L 552 475 Z M 306 474 L 306 475 Z M 1037 473 L 1037 474 Z M 736 473 L 736 482 Z M 596 473 L 598 473 Z M 586 473 L 588 473 Z M 883 472 L 883 473 Z M 590 472 L 592 472 Z M 937 471 L 937 472 Z M 306 469 L 306 471 Z M 788 465 L 788 477 Z M 721 464 L 721 496 Z M 469 464 L 469 466 Z M 957 463 L 957 464 L 958 464 L 958 463 Z M 654 463 L 654 495 Z M 737 462 L 736 463 Z M 564 462 L 562 464 Z M 811 461 L 812 461 Z M 787 461 L 787 463 L 788 463 L 787 462 Z M 403 461 L 403 463 Z M 471 460 L 470 461 L 470 462 L 470 461 Z M 337 460 L 336 461 L 336 464 L 336 461 Z M 737 459 L 738 459 Z M 671 459 L 670 460 L 670 464 L 670 461 L 671 460 Z M 452 459 L 453 460 L 453 461 L 454 462 L 454 497 L 453 498 L 453 499 L 452 500 L 453 499 L 453 498 L 454 497 L 455 497 L 456 496 L 455 497 L 454 496 L 454 462 L 453 461 L 453 460 Z M 967 458 L 966 459 L 967 458 L 968 459 Z M 785 458 L 786 459 Z M 571 458 L 570 459 L 569 459 L 568 460 L 567 460 L 566 461 L 567 460 L 569 460 Z M 385 458 L 386 459 L 386 460 L 387 461 L 387 495 L 387 461 L 386 460 L 386 459 Z M 672 457 L 673 457 Z M 70 457 L 71 457 Z M 744 456 L 739 461 L 739 497 L 740 498 L 740 499 L 742 501 L 743 501 L 744 502 L 746 502 L 747 503 L 748 502 L 753 502 L 754 503 L 755 502 L 756 502 L 757 503 L 763 503 L 764 502 L 765 503 L 767 503 L 768 502 L 769 502 L 770 503 L 771 502 L 780 502 L 781 501 L 782 501 L 784 499 L 784 498 L 785 497 L 785 461 L 783 459 L 783 458 L 782 458 L 780 456 Z M 677 456 L 673 460 L 673 461 L 672 462 L 672 496 L 673 497 L 673 498 L 677 502 L 714 502 L 718 498 L 718 494 L 719 493 L 719 466 L 718 465 L 718 461 L 716 459 L 716 458 L 717 457 L 718 457 L 717 457 L 716 458 L 715 458 L 713 456 Z M 450 456 L 451 457 Z M 410 456 L 408 458 L 407 458 L 406 457 L 405 457 L 405 458 L 404 459 L 406 457 L 407 458 L 407 459 L 406 460 L 406 461 L 405 462 L 405 497 L 406 498 L 406 499 L 408 501 L 409 501 L 410 502 L 414 502 L 415 503 L 416 503 L 417 502 L 436 502 L 437 503 L 438 502 L 439 503 L 440 502 L 447 502 L 451 498 L 451 496 L 452 495 L 452 464 L 451 463 L 451 461 L 450 460 L 450 459 L 449 458 L 448 458 L 446 456 Z M 344 456 L 343 457 L 342 457 L 339 460 L 339 461 L 338 462 L 338 497 L 339 498 L 339 499 L 338 500 L 337 499 L 338 500 L 339 499 L 341 501 L 340 502 L 342 504 L 343 504 L 344 505 L 379 505 L 380 504 L 379 505 L 344 505 L 343 504 L 342 504 L 340 502 L 341 501 L 342 501 L 343 502 L 346 502 L 347 503 L 348 502 L 350 502 L 351 503 L 354 503 L 355 502 L 356 503 L 370 503 L 371 502 L 372 503 L 374 503 L 375 502 L 380 502 L 384 498 L 384 497 L 385 496 L 385 463 L 384 462 L 384 460 L 381 457 L 380 457 L 379 456 Z M 616 455 L 616 456 L 617 457 L 618 457 L 620 459 L 619 460 L 618 460 L 619 461 L 620 461 L 624 465 L 619 460 L 620 459 L 621 459 L 628 466 L 628 467 L 631 470 L 631 471 L 632 472 L 632 473 L 631 474 L 630 473 L 631 474 L 631 475 L 631 474 L 632 473 L 634 475 L 634 477 L 635 478 L 635 479 L 636 480 L 636 482 L 637 483 L 637 486 L 638 487 L 638 493 L 639 494 L 639 501 L 647 501 L 651 497 L 651 493 L 652 492 L 652 466 L 651 465 L 651 461 L 650 460 L 650 459 L 649 458 L 650 457 L 648 455 L 649 456 L 648 457 L 647 457 L 646 456 L 617 456 Z M 573 455 L 573 456 Z M 570 455 L 569 456 L 477 456 L 475 458 L 474 458 L 474 459 L 473 460 L 473 461 L 472 462 L 472 496 L 473 497 L 473 498 L 474 499 L 474 500 L 475 501 L 476 501 L 477 502 L 544 502 L 544 490 L 545 489 L 545 486 L 546 485 L 546 482 L 547 481 L 547 480 L 548 479 L 548 478 L 549 477 L 549 476 L 550 475 L 550 474 L 552 472 L 552 471 L 557 466 L 558 467 L 559 466 L 558 467 L 557 466 L 557 465 L 558 464 L 559 464 L 563 460 L 564 460 L 566 458 L 567 458 L 568 457 L 569 457 L 570 456 L 571 456 L 571 455 Z M 779 454 L 781 454 L 783 456 L 781 454 Z M 743 454 L 741 456 L 740 456 L 741 456 L 743 454 L 745 454 Z M 712 454 L 713 454 Z M 677 454 L 679 454 Z M 661 454 L 661 455 Z M 645 454 L 646 454 Z M 445 454 L 447 454 Z M 378 454 L 380 454 L 381 455 L 382 455 L 383 456 L 382 455 L 381 455 L 380 454 Z M 343 454 L 342 455 L 341 455 L 340 456 L 341 455 L 342 455 L 343 454 L 345 454 Z M 769 453 L 773 453 Z M 757 453 L 764 453 Z M 748 453 L 749 453 Z M 707 453 L 709 453 Z M 702 453 L 703 453 Z M 681 453 L 695 453 Z M 637 453 L 639 453 Z M 628 453 L 630 453 Z M 623 453 L 624 453 Z M 617 453 L 618 453 Z M 570 453 L 571 453 Z M 563 453 L 567 453 Z M 558 453 L 559 453 Z M 547 453 L 549 453 Z M 539 453 L 541 453 Z M 531 453 L 535 453 Z M 527 453 L 528 453 Z M 523 453 L 525 453 Z M 516 453 L 520 453 Z M 509 453 L 510 453 Z M 505 453 L 507 453 Z M 498 453 L 499 453 Z M 492 453 L 493 453 Z M 479 453 L 478 454 L 477 454 L 478 454 L 479 453 L 480 453 Z M 436 453 L 438 453 Z M 428 453 L 430 453 Z M 423 453 L 425 453 Z M 373 453 L 375 453 Z M 362 453 L 363 453 Z M 359 453 L 360 453 Z M 354 453 L 357 453 Z M 347 453 L 348 453 Z M 818 451 L 818 454 Z M 1048 449 L 1049 450 Z M 1027 449 L 1026 450 Z M 583 449 L 583 450 Z M 957 448 L 958 449 Z M 181 448 L 182 449 Z M 967 447 L 968 447 Z M 927 446 L 927 447 Z M 378 446 L 379 446 Z M 785 444 L 785 445 Z M 818 443 L 818 444 Z M 306 440 L 306 442 Z M 626 438 L 626 439 Z M 535 438 L 535 439 Z M 643 435 L 676 435 Z M 440 435 L 474 435 Z M 818 434 L 818 435 Z M 708 434 L 709 435 L 774 435 L 709 435 Z M 610 434 L 610 435 Z M 573 434 L 575 434 L 576 435 L 582 435 L 583 436 L 584 435 L 608 435 L 576 435 L 575 434 Z M 543 434 L 544 434 Z M 343 434 L 344 435 L 407 435 L 344 435 Z M 782 433 L 781 434 L 780 434 L 779 435 L 776 435 L 779 435 L 780 434 L 781 434 Z M 505 433 L 506 434 L 507 434 L 508 435 L 532 435 L 533 436 L 534 435 L 541 435 L 509 435 L 508 434 L 506 434 Z M 807 432 L 806 433 Z M 681 432 L 679 434 L 678 434 L 679 434 L 680 433 L 681 433 Z M 638 432 L 639 433 Z M 569 432 L 570 433 Z M 411 432 L 410 433 Z M 615 431 L 614 432 Z M 628 430 L 629 430 Z M 635 429 L 636 430 Z M 337 429 L 338 430 Z M 306 429 L 306 430 Z M 1019 427 L 1020 427 Z M 684 427 L 684 428 L 685 427 Z M 567 427 L 567 428 Z M 550 427 L 550 428 L 549 429 L 549 430 L 548 431 L 549 430 L 549 429 L 550 428 Z M 432 427 L 432 428 L 433 429 L 433 430 L 433 429 L 432 428 Z M 1063 426 L 1063 427 Z M 787 426 L 787 427 Z M 634 426 L 634 427 Z M 500 426 L 500 427 Z M 306 425 L 306 427 Z M 701 423 L 701 427 Z M 929 422 L 928 423 L 930 423 Z M 854 422 L 855 422 Z M 336 422 L 336 426 Z M 818 421 L 818 423 Z M 788 419 L 788 421 Z M 632 419 L 633 419 Z M 491 418 L 492 419 Z M 990 417 L 990 418 Z M 818 414 L 818 415 Z M 633 414 L 633 415 Z M 483 414 L 483 427 Z M 818 411 L 818 412 Z M 306 410 L 306 411 Z M 633 409 L 633 411 Z M 430 409 L 431 409 Z M 336 409 L 336 410 Z M 818 407 L 818 409 Z M 788 407 L 788 415 Z M 701 406 L 701 408 Z M 981 405 L 982 405 Z M 894 405 L 894 406 L 895 406 Z M 306 404 L 306 405 Z M 879 403 L 879 404 Z M 788 403 L 788 405 Z M 215 402 L 216 402 Z M 483 401 L 483 412 L 483 408 L 484 407 L 483 406 Z M 701 400 L 701 401 Z M 69 400 L 70 400 Z M 51 400 L 52 400 Z M 885 399 L 886 399 Z M 895 398 L 895 399 Z M 818 398 L 817 399 L 818 399 Z M 685 398 L 685 425 Z M 263 398 L 262 399 Z M 253 398 L 252 399 Z M 128 397 L 128 398 Z M 306 396 L 306 397 Z M 869 395 L 869 396 Z M 431 395 L 431 396 Z M 788 394 L 788 401 Z M 499 394 L 499 405 L 498 406 L 499 407 L 499 414 L 498 415 L 499 416 L 499 423 L 498 424 L 499 424 Z M 566 393 L 566 425 Z M 1061 392 L 1060 393 Z M 415 392 L 415 427 L 414 428 L 415 427 Z M 336 392 L 336 396 Z M 126 392 L 127 393 Z M 121 392 L 122 393 Z M 684 391 L 685 392 L 685 396 L 685 392 Z M 617 391 L 617 392 L 618 393 L 618 426 L 617 427 L 618 426 L 618 403 L 619 402 L 618 401 L 618 392 Z M 432 391 L 432 392 Z M 253 391 L 253 392 Z M 567 390 L 567 391 Z M 550 390 L 550 392 L 551 393 L 551 425 L 551 393 L 550 392 Z M 635 389 L 634 390 L 634 392 L 633 393 L 633 394 L 634 393 L 634 390 Z M 501 389 L 500 390 L 500 391 L 499 392 L 500 391 L 500 390 Z M 1063 388 L 1062 389 Z M 908 388 L 908 389 Z M 481 388 L 482 389 L 482 390 L 483 391 L 483 394 L 484 395 L 483 396 L 483 398 L 484 397 L 483 396 L 484 395 L 483 394 L 483 391 L 482 390 L 482 389 Z M 434 387 L 433 388 L 433 389 L 433 388 Z M 705 386 L 703 388 L 702 387 L 703 388 L 702 389 L 702 390 L 701 391 L 701 393 L 701 391 L 702 390 L 702 389 Z M 712 385 L 711 386 L 708 386 L 704 390 L 704 391 L 703 392 L 703 426 L 704 427 L 704 428 L 708 432 L 710 432 L 711 433 L 777 433 L 778 432 L 780 432 L 781 431 L 782 431 L 783 430 L 783 429 L 785 427 L 785 392 L 784 391 L 784 389 L 783 388 L 782 388 L 780 386 L 778 386 L 777 385 Z M 680 385 L 681 386 L 682 386 L 681 386 Z M 644 385 L 643 386 L 641 386 L 640 387 L 639 387 L 637 389 L 637 390 L 636 391 L 636 427 L 638 429 L 638 430 L 639 430 L 641 432 L 642 432 L 643 433 L 675 433 L 676 432 L 678 432 L 682 428 L 682 391 L 681 390 L 681 389 L 679 387 L 678 387 L 677 386 L 674 386 L 673 385 Z M 578 385 L 577 386 L 573 386 L 570 389 L 570 390 L 569 391 L 569 393 L 568 394 L 568 423 L 569 424 L 569 427 L 570 428 L 570 429 L 572 431 L 573 431 L 574 432 L 576 432 L 577 433 L 608 433 L 609 432 L 610 432 L 611 431 L 612 431 L 614 429 L 614 428 L 615 427 L 615 391 L 613 389 L 613 388 L 612 387 L 613 386 L 612 387 L 611 387 L 610 386 L 608 386 L 607 385 Z M 571 385 L 568 388 Z M 510 385 L 509 386 L 507 386 L 506 387 L 505 387 L 503 389 L 503 390 L 502 391 L 502 427 L 503 428 L 503 429 L 505 431 L 506 431 L 507 432 L 509 432 L 510 433 L 541 433 L 542 432 L 543 432 L 544 431 L 545 431 L 547 429 L 547 428 L 548 427 L 548 391 L 547 390 L 547 389 L 545 387 L 544 387 L 543 386 L 540 386 L 539 385 Z M 442 385 L 441 386 L 439 386 L 438 387 L 437 387 L 435 389 L 435 390 L 434 391 L 434 427 L 436 429 L 436 430 L 437 431 L 436 432 L 437 431 L 438 431 L 439 432 L 441 432 L 442 433 L 473 433 L 474 432 L 476 432 L 477 431 L 478 431 L 479 430 L 479 429 L 480 428 L 480 427 L 481 426 L 481 392 L 480 391 L 480 390 L 476 386 L 473 386 L 472 385 Z M 347 385 L 346 386 L 343 386 L 339 390 L 339 391 L 338 392 L 338 427 L 340 429 L 340 430 L 341 431 L 342 431 L 343 432 L 344 432 L 345 433 L 405 433 L 406 432 L 408 432 L 412 428 L 412 427 L 413 426 L 413 392 L 412 391 L 412 390 L 408 386 L 405 386 L 404 385 Z M 156 385 L 157 385 Z M 989 384 L 990 384 Z M 818 384 L 818 387 Z M 800 384 L 800 385 Z M 780 384 L 781 384 L 782 385 L 781 384 Z M 640 384 L 639 385 L 640 384 L 641 384 Z M 543 384 L 544 384 L 545 385 L 544 384 Z M 476 384 L 478 384 L 479 385 L 479 386 L 479 385 L 478 384 Z M 407 384 L 408 384 Z M 86 384 L 87 385 Z M 710 383 L 709 384 L 708 384 L 709 384 L 710 383 L 778 383 Z M 643 383 L 676 383 Z M 576 383 L 609 383 L 610 384 L 611 384 L 610 384 L 609 383 Z M 508 383 L 507 384 L 506 384 L 507 384 L 508 383 L 541 383 Z M 440 383 L 474 383 Z M 116 383 L 117 383 Z M 1014 382 L 1014 383 Z M 388 382 L 387 383 L 345 383 L 344 384 L 342 384 L 341 385 L 342 384 L 344 384 L 345 383 L 405 383 L 389 383 Z M 502 376 L 503 376 Z M 726 375 L 727 375 Z M 877 374 L 878 374 Z M 391 374 L 391 375 Z M 204 368 L 205 368 Z M 614 367 L 612 369 L 613 368 L 614 369 L 615 369 L 616 368 L 615 369 L 614 369 L 613 368 Z M 394 367 L 395 367 Z M 1003 366 L 1004 367 Z M 770 365 L 779 365 Z M 761 365 L 766 365 L 767 366 L 766 365 Z M 753 365 L 755 365 Z M 690 365 L 695 365 Z M 685 365 L 686 365 Z M 631 365 L 645 365 Z M 574 365 L 575 365 Z M 570 365 L 572 365 Z M 562 365 L 567 365 Z M 558 365 L 560 365 Z M 544 365 L 555 365 Z M 498 365 L 511 365 Z M 493 365 L 495 365 Z M 478 365 L 485 365 L 486 366 L 487 365 L 488 366 L 489 365 L 491 365 Z M 442 365 L 445 365 Z M 439 365 L 440 365 Z M 436 365 L 437 365 Z M 423 365 L 427 365 Z M 419 365 L 421 365 Z M 411 365 L 415 365 Z M 364 365 L 367 365 Z M 608 364 L 609 364 L 610 365 L 629 365 L 610 365 L 609 364 Z M 580 364 L 580 365 Z M 380 364 L 379 365 L 370 365 L 380 365 L 381 364 Z M 818 363 L 817 364 L 818 364 Z M 741 363 L 742 364 L 741 365 L 742 364 L 743 365 L 751 365 L 743 365 Z M 675 363 L 676 364 L 677 364 L 678 365 L 681 365 L 678 365 L 677 364 L 676 364 Z M 407 363 L 408 364 L 409 364 L 408 364 Z M 947 362 L 948 362 Z M 717 362 L 715 364 L 714 364 L 713 365 L 698 365 L 709 365 L 710 366 L 711 365 L 713 365 L 714 364 L 715 364 L 716 363 L 717 364 L 716 363 Z M 518 361 L 515 364 L 514 364 L 515 364 Z M 786 360 L 782 364 L 781 364 L 782 364 Z M 604 360 L 605 361 L 605 362 L 605 361 Z M 386 359 L 385 360 Z M 453 358 L 453 359 L 449 363 L 453 359 Z M 1030 357 L 1031 357 Z M 818 357 L 818 359 Z M 787 357 L 787 358 Z M 653 357 L 653 358 Z M 863 356 L 864 356 Z M 670 356 L 670 357 Z M 520 356 L 520 359 Z M 403 356 L 403 358 L 402 359 L 403 358 L 404 359 L 404 360 L 405 361 L 404 360 L 404 359 L 403 358 Z M 336 356 L 336 358 L 337 359 L 337 360 L 341 364 L 342 364 L 343 365 L 355 365 L 343 365 L 342 364 L 341 364 L 337 360 L 337 359 L 336 358 Z M 536 355 L 536 356 Z M 470 355 L 470 358 Z M 889 354 L 890 355 Z M 1064 352 L 1063 353 Z M 306 352 L 306 353 Z M 105 352 L 106 353 Z M 942 351 L 941 352 Z M 535 351 L 535 352 Z M 892 350 L 893 350 Z M 736 350 L 736 354 Z M 226 350 L 227 350 Z M 899 347 L 899 348 Z M 788 344 L 788 351 Z M 591 344 L 592 344 Z M 176 344 L 176 345 Z M 818 343 L 818 344 Z M 535 342 L 535 345 Z M 736 341 L 736 348 Z M 178 341 L 179 342 L 180 341 L 179 342 Z M 818 340 L 818 341 Z M 87 340 L 89 340 Z M 736 338 L 736 339 Z M 654 338 L 654 355 Z M 594 338 L 595 338 Z M 111 338 L 112 338 Z M 1057 336 L 1058 337 Z M 788 336 L 788 341 Z M 988 335 L 989 336 Z M 817 335 L 818 335 Z M 219 335 L 220 335 Z M 997 333 L 997 334 Z M 818 332 L 818 333 Z M 917 330 L 918 331 Z M 788 330 L 788 331 Z M 871 328 L 872 328 Z M 818 328 L 818 329 L 817 330 L 818 330 Z M 521 328 L 521 329 Z M 210 328 L 211 328 Z M 151 328 L 151 329 Z M 206 327 L 208 327 Z M 736 326 L 736 336 Z M 721 325 L 721 356 L 720 357 L 721 356 Z M 602 325 L 602 356 Z M 788 324 L 788 328 Z M 654 324 L 654 336 Z M 387 324 L 387 357 Z M 336 324 L 336 325 Z M 403 321 L 403 322 Z M 336 321 L 336 322 Z M 537 320 L 536 321 L 536 324 L 536 321 Z M 453 320 L 453 321 L 454 322 L 454 356 L 454 322 L 453 321 Z M 1032 319 L 1033 319 Z M 738 319 L 737 320 L 737 322 L 736 323 L 737 322 L 737 320 Z M 719 319 L 720 320 L 720 321 L 720 320 Z M 671 319 L 670 320 Z M 585 319 L 586 320 L 586 321 L 587 322 L 587 357 L 586 358 L 586 359 L 584 361 L 586 359 L 586 358 L 587 357 L 587 322 L 586 321 L 586 320 Z M 471 319 L 470 320 L 470 321 L 470 320 Z M 385 319 L 386 320 L 386 321 L 387 322 L 386 321 L 386 320 Z M 818 317 L 818 318 Z M 221 317 L 222 317 Z M 745 316 L 744 317 L 743 317 L 742 318 L 741 318 L 741 319 L 739 321 L 739 358 L 738 359 L 737 358 L 737 357 L 736 357 L 738 359 L 738 361 L 739 362 L 739 361 L 738 360 L 738 359 L 739 358 L 743 362 L 744 362 L 745 363 L 779 363 L 780 362 L 781 362 L 784 359 L 784 358 L 785 357 L 785 322 L 784 321 L 784 320 L 781 317 L 780 317 L 779 316 Z M 677 316 L 673 320 L 673 321 L 672 322 L 672 357 L 673 358 L 673 359 L 675 361 L 676 361 L 677 362 L 678 362 L 679 363 L 712 363 L 713 362 L 714 362 L 718 358 L 718 354 L 719 353 L 719 329 L 718 328 L 718 321 L 716 319 L 716 318 L 717 317 L 716 318 L 715 317 L 714 317 L 713 316 Z M 610 316 L 609 317 L 608 317 L 606 319 L 606 320 L 605 321 L 605 323 L 604 324 L 604 355 L 605 356 L 605 358 L 607 360 L 607 361 L 608 361 L 609 362 L 610 362 L 611 363 L 644 363 L 645 362 L 647 362 L 650 359 L 650 358 L 651 357 L 651 321 L 649 319 L 649 318 L 648 318 L 646 316 Z M 544 316 L 543 317 L 542 317 L 539 320 L 539 321 L 538 322 L 538 357 L 539 358 L 539 359 L 542 362 L 544 362 L 545 363 L 578 363 L 579 362 L 580 362 L 584 358 L 584 356 L 585 355 L 585 323 L 584 322 L 584 321 L 583 320 L 583 319 L 581 317 L 580 317 L 579 316 Z M 516 316 L 519 319 L 519 320 L 519 319 Z M 477 316 L 475 318 L 474 318 L 474 319 L 473 320 L 473 321 L 472 322 L 472 357 L 473 358 L 473 359 L 476 362 L 475 363 L 474 363 L 473 362 L 474 363 L 475 363 L 476 364 L 475 363 L 476 362 L 478 362 L 479 363 L 511 363 L 512 362 L 514 362 L 517 359 L 517 358 L 518 357 L 518 322 L 517 321 L 517 320 L 514 317 L 513 317 L 512 316 Z M 450 316 L 452 318 Z M 411 316 L 410 317 L 409 317 L 405 321 L 405 357 L 406 358 L 406 359 L 409 362 L 410 362 L 411 363 L 445 363 L 446 362 L 447 362 L 451 358 L 451 356 L 452 355 L 452 323 L 451 322 L 451 321 L 450 320 L 450 319 L 448 317 L 447 317 L 446 316 Z M 343 316 L 341 318 L 340 318 L 340 319 L 339 320 L 339 321 L 338 322 L 338 357 L 339 358 L 339 359 L 342 362 L 344 362 L 345 363 L 378 363 L 379 362 L 380 362 L 381 361 L 382 361 L 383 360 L 383 359 L 384 358 L 384 357 L 385 356 L 385 323 L 384 322 L 384 321 L 383 320 L 383 319 L 381 317 L 380 317 L 379 316 Z M 782 315 L 783 316 Z M 675 315 L 674 316 Z M 1039 314 L 1038 315 Z M 744 314 L 745 314 Z M 579 314 L 580 314 L 581 315 L 580 314 Z M 543 314 L 544 314 Z M 446 314 L 447 314 L 448 315 L 447 314 Z M 409 314 L 404 319 L 408 315 L 409 315 L 410 314 L 411 314 Z M 379 314 L 380 314 L 381 315 L 380 314 Z M 305 314 L 306 314 Z M 773 313 L 776 313 Z M 762 313 L 769 313 Z M 755 313 L 759 313 Z M 695 313 L 696 313 Z M 645 313 L 646 314 L 647 314 L 648 315 L 647 314 L 646 314 Z M 621 313 L 625 313 Z M 615 313 L 616 313 Z M 612 313 L 611 314 L 609 314 L 611 314 L 612 313 L 613 313 Z M 567 313 L 569 313 Z M 557 313 L 559 313 Z M 553 313 L 555 313 Z M 549 313 L 551 313 Z M 546 313 L 547 313 Z M 484 313 L 489 313 Z M 481 313 L 482 313 Z M 435 313 L 439 313 Z M 430 313 L 432 313 Z M 373 313 L 376 313 Z M 350 313 L 351 313 Z M 345 313 L 344 314 L 343 314 L 344 314 L 345 313 L 347 313 Z M 306 311 L 306 312 Z M 271 309 L 271 507 L 272 508 L 271 509 L 272 510 L 272 513 L 272 510 L 271 509 L 272 508 L 271 507 Z M 270 306 L 271 307 L 271 306 Z M 852 305 L 852 508 L 852 471 L 853 470 L 852 469 L 852 342 L 853 341 L 852 340 L 852 331 L 853 330 L 852 329 Z M 306 305 L 306 309 Z M 433 304 L 434 304 Z M 472 302 L 473 303 Z M 307 301 L 307 303 Z M 668 300 L 668 301 Z M 272 299 L 272 303 Z M 851 298 L 851 303 Z M 814 297 L 814 298 L 815 299 L 815 300 L 816 301 L 816 303 L 817 304 L 817 305 L 817 304 L 816 303 L 816 301 L 815 300 L 815 299 L 814 298 Z M 310 296 L 309 297 Z M 273 295 L 273 297 Z M 205 295 L 206 295 Z M 849 292 L 849 293 L 850 294 L 850 296 L 850 294 L 849 293 Z M 223 292 L 224 292 Z M 315 289 L 314 290 Z M 224 289 L 224 290 Z M 806 287 L 811 292 Z M 958 285 L 957 286 Z M 277 284 L 276 285 Z M 845 283 L 846 284 L 846 285 L 847 286 L 847 287 L 847 286 L 846 285 L 846 284 Z M 323 283 L 322 284 L 321 284 L 319 286 L 321 284 L 322 284 L 323 283 L 324 283 Z M 796 282 L 797 282 Z M 326 282 L 327 282 Z M 792 281 L 794 281 Z M 329 281 L 330 281 Z M 335 280 L 596 280 L 597 281 L 598 280 L 747 280 L 748 281 L 749 280 L 790 280 Z M 205 278 L 206 278 Z M 127 276 L 127 277 Z M 283 274 L 281 276 Z M 1008 272 L 1007 273 L 1008 272 L 1009 272 Z M 931 267 L 931 268 Z M 94 265 L 96 265 Z M 909 262 L 910 262 Z M 871 262 L 872 262 Z M 131 262 L 132 263 Z M 299 257 L 298 258 L 299 257 L 300 257 Z M 820 255 L 821 256 L 822 256 L 821 256 Z M 211 255 L 211 256 Z M 304 254 L 303 255 L 302 255 L 303 255 Z M 814 252 L 815 252 L 816 253 L 815 252 Z M 307 252 L 306 253 L 307 252 L 308 252 Z M 809 250 L 811 250 L 812 251 L 811 250 Z M 312 250 L 313 250 Z M 147 250 L 148 250 Z M 327 248 L 326 249 L 322 249 L 321 250 L 318 250 L 317 251 L 315 251 L 314 252 L 313 252 L 312 253 L 311 253 L 310 254 L 308 254 L 307 255 L 306 255 L 304 257 L 303 257 L 301 259 L 300 259 L 297 262 L 296 262 L 288 270 L 288 271 L 285 274 L 285 275 L 283 277 L 283 278 L 281 280 L 281 281 L 280 282 L 280 283 L 279 284 L 279 286 L 278 287 L 278 288 L 277 289 L 277 291 L 276 292 L 276 294 L 275 295 L 275 299 L 274 300 L 274 511 L 275 512 L 275 517 L 276 518 L 276 520 L 277 521 L 277 523 L 278 524 L 278 526 L 279 527 L 279 528 L 280 529 L 280 530 L 281 531 L 281 532 L 282 533 L 282 534 L 283 535 L 283 536 L 285 538 L 285 539 L 288 542 L 288 543 L 298 553 L 297 554 L 298 553 L 299 553 L 302 556 L 303 556 L 305 558 L 304 559 L 305 560 L 304 559 L 305 558 L 306 558 L 307 559 L 308 559 L 309 560 L 310 560 L 311 561 L 312 561 L 313 562 L 315 562 L 316 563 L 317 563 L 318 564 L 321 564 L 322 565 L 325 565 L 326 566 L 330 566 L 331 567 L 544 567 L 544 538 L 339 538 L 338 537 L 332 537 L 331 536 L 328 536 L 327 535 L 326 535 L 325 534 L 324 534 L 323 533 L 324 532 L 325 532 L 324 532 L 323 531 L 324 532 L 323 533 L 322 533 L 321 532 L 320 532 L 318 530 L 319 529 L 314 524 L 319 529 L 318 530 L 317 530 L 311 524 L 311 523 L 308 520 L 308 519 L 307 518 L 307 517 L 306 516 L 306 514 L 305 513 L 305 511 L 304 510 L 304 506 L 303 505 L 303 308 L 304 307 L 304 303 L 305 302 L 305 300 L 306 299 L 306 298 L 307 297 L 307 296 L 308 295 L 308 294 L 310 292 L 310 291 L 317 284 L 318 284 L 320 282 L 321 282 L 322 281 L 323 281 L 324 280 L 326 280 L 327 279 L 330 279 L 331 278 L 792 278 L 793 279 L 796 279 L 797 280 L 799 280 L 800 281 L 801 281 L 802 282 L 803 282 L 805 284 L 806 284 L 813 291 L 813 292 L 815 294 L 815 295 L 816 296 L 816 297 L 817 298 L 817 299 L 818 300 L 818 302 L 819 303 L 819 307 L 820 308 L 820 506 L 819 507 L 819 511 L 818 512 L 818 514 L 817 515 L 817 516 L 816 517 L 816 518 L 815 519 L 815 520 L 813 522 L 813 523 L 806 530 L 805 530 L 803 532 L 802 532 L 800 534 L 798 534 L 797 535 L 796 535 L 795 536 L 793 536 L 792 537 L 785 537 L 784 538 L 674 538 L 673 537 L 673 538 L 677 542 L 677 543 L 679 545 L 679 546 L 680 547 L 680 548 L 681 549 L 681 550 L 682 551 L 682 552 L 683 553 L 683 555 L 684 556 L 684 559 L 685 560 L 685 565 L 686 566 L 686 567 L 791 567 L 792 566 L 797 566 L 798 565 L 801 565 L 802 564 L 805 564 L 806 563 L 807 563 L 808 562 L 810 562 L 811 561 L 812 561 L 813 560 L 814 560 L 815 559 L 816 559 L 817 558 L 818 558 L 820 556 L 821 556 L 823 554 L 824 554 L 825 555 L 824 556 L 825 555 L 824 554 L 836 542 L 836 541 L 839 538 L 839 537 L 840 536 L 840 535 L 842 533 L 842 532 L 843 531 L 843 530 L 844 529 L 844 527 L 845 526 L 845 525 L 846 524 L 846 522 L 847 521 L 847 519 L 848 518 L 848 514 L 849 513 L 849 507 L 850 506 L 850 307 L 849 306 L 849 300 L 848 299 L 848 296 L 847 295 L 847 292 L 846 291 L 846 290 L 845 289 L 845 287 L 844 286 L 844 285 L 843 284 L 843 283 L 842 282 L 842 281 L 841 280 L 841 279 L 839 277 L 839 276 L 837 274 L 837 273 L 832 268 L 832 267 L 830 265 L 831 264 L 828 261 L 831 264 L 830 265 L 829 265 L 824 260 L 823 260 L 821 258 L 820 258 L 818 256 L 817 256 L 816 255 L 815 255 L 814 254 L 813 254 L 812 253 L 811 253 L 810 252 L 808 252 L 807 251 L 805 251 L 804 250 L 801 250 L 800 249 L 796 249 L 795 248 Z M 799 247 L 802 247 L 803 248 L 805 248 L 806 249 L 807 249 L 806 249 L 805 248 L 803 248 L 802 247 Z M 792 246 L 797 246 Z M 324 246 L 323 247 L 320 247 L 319 248 L 317 248 L 316 249 L 315 249 L 316 249 L 317 248 L 319 248 L 320 247 L 323 247 L 324 246 L 329 246 Z M 787 245 L 788 245 Z M 443 245 L 784 245 Z M 338 245 L 441 245 Z M 333 245 L 336 245 Z M 761 241 L 762 241 Z M 1000 240 L 1001 241 L 1001 240 Z M 325 240 L 325 241 Z M 284 239 L 283 240 Z M 204 239 L 205 239 Z M 151 238 L 150 239 Z M 453 237 L 454 237 Z M 949 236 L 950 236 Z M 598 235 L 599 236 L 599 235 Z M 596 230 L 597 230 Z M 441 228 L 441 229 Z M 338 228 L 339 228 Z M 787 227 L 787 228 Z M 141 227 L 142 228 Z M 165 224 L 165 225 Z M 559 223 L 560 224 Z M 520 223 L 521 224 Z M 328 223 L 329 223 Z M 699 222 L 700 223 Z M 512 222 L 512 223 Z M 484 222 L 484 223 Z M 934 221 L 935 222 Z M 313 221 L 312 222 Z M 592 217 L 593 217 Z M 131 216 L 132 216 Z M 77 216 L 78 216 Z M 354 214 L 355 214 Z M 399 212 L 398 213 Z M 999 207 L 1000 207 Z M 785 207 L 786 207 Z M 597 205 L 598 205 Z M 298 205 L 298 206 Z M 236 205 L 237 205 Z M 694 204 L 695 205 Z M 154 201 L 155 201 Z M 688 198 L 688 199 Z M 598 198 L 598 201 L 599 201 L 599 199 Z M 59 197 L 60 198 Z M 571 196 L 572 196 Z M 599 194 L 599 195 L 598 196 L 599 196 Z M 313 194 L 313 195 Z M 187 193 L 188 194 Z M 925 192 L 926 192 Z M 920 192 L 921 192 Z M 398 192 L 399 192 Z M 650 188 L 651 189 Z M 238 187 L 237 188 Z M 334 177 L 333 178 Z M 769 176 L 770 176 Z M 581 175 L 582 175 Z M 979 171 L 981 171 Z M 256 167 L 257 167 Z M 573 166 L 572 167 Z M 476 166 L 475 167 Z M 740 165 L 741 165 Z M 401 164 L 403 164 Z M 381 164 L 381 165 Z M 808 163 L 809 163 Z M 526 162 L 525 163 Z M 645 161 L 646 161 Z M 149 160 L 150 160 Z M 561 158 L 560 159 Z M 365 157 L 366 158 Z M 731 156 L 732 156 Z M 493 156 L 493 157 Z M 141 156 L 141 157 Z M 234 152 L 235 152 Z M 1047 148 L 1047 149 Z M 862 148 L 863 149 Z M 589 148 L 589 149 Z M 187 148 L 188 148 Z M 930 147 L 931 147 Z M 273 147 L 272 148 Z M 158 147 L 158 148 L 159 148 Z M 839 146 L 838 147 Z M 661 146 L 662 147 L 662 146 Z M 130 146 L 130 147 Z M 988 145 L 989 145 Z M 624 145 L 625 145 Z M 893 144 L 894 144 Z M 775 144 L 775 145 Z M 727 143 L 726 144 Z M 301 143 L 301 144 Z M 738 142 L 738 143 Z M 589 142 L 589 143 L 590 142 Z M 135 142 L 134 143 Z M 834 141 L 834 142 Z M 1029 140 L 1028 141 Z M 722 140 L 721 141 Z M 471 140 L 472 140 Z M 261 139 L 261 140 Z M 627 138 L 628 139 Z M 1003 137 L 1004 138 Z M 730 136 L 731 136 Z M 552 136 L 553 136 Z M 165 136 L 166 136 Z M 66 135 L 66 136 Z M 299 134 L 300 134 Z M 588 132 L 589 132 Z M 317 132 L 318 133 L 319 133 L 318 133 Z M 461 127 L 462 127 Z M 692 125 L 693 125 Z M 520 125 L 519 126 Z M 1002 123 L 1002 124 Z M 850 120 L 850 121 Z M 317 119 L 318 119 Z M 194 119 L 193 120 Z M 172 117 L 173 117 Z M 507 116 L 506 117 Z M 853 115 L 853 116 Z M 328 112 L 329 113 Z M 290 110 L 291 110 Z M 322 109 L 323 110 Z M 816 107 L 817 107 Z M 575 106 L 576 106 Z M 429 106 L 430 106 Z M 824 104 L 824 105 Z M 1048 103 L 1049 103 Z M 450 95 L 451 95 Z M 698 94 L 699 94 Z M 117 94 L 118 94 Z M 837 92 L 838 92 Z M 999 90 L 998 91 L 997 91 L 998 91 Z M 858 90 L 859 90 Z M 774 90 L 775 90 Z M 743 89 L 744 90 Z M 968 88 L 969 88 Z M 586 88 L 587 88 Z M 995 87 L 994 88 Z M 353 87 L 354 87 Z M 244 84 L 245 85 Z M 643 80 L 644 80 Z M 175 79 L 176 79 Z M 652 77 L 653 78 L 653 79 L 653 78 Z M 654 75 L 654 76 Z M 649 75 L 650 75 Z M 937 72 L 937 73 Z M 686 71 L 687 72 Z M 1004 69 L 1004 70 Z M 447 66 L 448 66 Z M 1062 63 L 1063 63 Z M 430 63 L 431 63 Z M 932 62 L 932 63 Z M 562 62 L 563 62 Z M 517 56 L 518 56 Z M 318 53 L 319 53 Z " fill="#2979FF"/>
</svg>